# xmcd
#
# Track frame offsets:
#	150
#	21945
#	58892
#	73809
#	93097
#	111494
#	130670
#	150222
#	170973
#	186528
#	208617
#	221714
#	238317
#	250968
#	272982
#	297853
#
# Disc length: 4077 seconds
#
# Revision: 2
# Processed by: cddbd v1.5.1PL2 Copyright (c) Steve Scherf et al.
# Submitted via: audiograbber 1.83.01
#
DISCID=020feb10
DTITLE=Jazz Inflections - Love Songs
DYEAR=2005
DGENRE=
TTITLE0=Pink Martini - Amado Mio
TTITLE1=Dianne Reeves - Besame Mucho
TTITLE2=Manhattan Transfer - Topsy
TTITLE3=Tony Bennett and Ray Charles - Evenin'
TTITLE4=Paul Anka and Lucero - You are my Destiny
TTITLE5=Cassandra Wilson - Death Letter
TTITLE6=Paris Combo - Retroviseur
TTITLE7=Alma Nieto and Rosenberg Trio - Querer
TTITLE8=Pink Martini - Donde Estas Yolanda
TTITLE9=Joe Williams and Dianne Reeves - Tenderly
TTITLE10=Manhattan Transfer
TTITLE11=Tony Bennett and Stevie Wonder - Everyday
TTITLE12=Bryan Ferry - Just one of those things
TTITLE13=Hors Saison - Smoke on the water
TTITLE14=Melanie Bong - Hollow Insensitive
TTITLE15=Carol Woods - All of me
EXTD=
EXTT0=
EXTT1=
EXTT2=
EXTT3=
EXTT4=
EXTT5=
EXTT6=
EXTT7=
EXTT8=
EXTT9=
EXTT10=
EXTT11=
EXTT12=
EXTT13=
EXTT14=
EXTT15=
PLAYORDER=
